<svg width="55" height="54" viewBox="0 0 55 54" fill="none" xmlns="http://www.w3.org/2000/svg">
<rect x="0.25" width="54.5" height="54" rx="9.81818" fill="#27497D" fill-opacity="0.1"/>
<path d="M20.4473 33.7733L22.2181 31.5605L16.5174 27.0002L22.2181 22.44L20.4473 20.2272L13.3639 25.8938C13.198 26.0265 13.064 26.1949 12.9719 26.3864C12.8798 26.5779 12.832 26.7877 12.832 27.0002C12.832 27.2127 12.8798 27.4225 12.9719 27.6141C13.064 27.8056 13.198 27.9739 13.3639 28.1067L20.4473 33.7733ZM33.5514 20.2272L31.7806 22.44L37.4813 27.0002L31.7806 31.5605L33.5514 33.7733L40.6348 28.1067C40.8007 27.9739 40.9347 27.8056 41.0268 27.6141C41.1189 27.4225 41.1667 27.2127 41.1667 27.0002C41.1667 26.7877 41.1189 26.5779 41.0268 26.3864C40.9347 26.1949 40.8007 26.0265 40.6348 25.8938L33.5514 20.2272ZM31.2154 14.5562L25.5487 40.0562L22.7819 39.4414L28.4486 13.9414L31.2154 14.5562Z" fill="#27497D"/>
</svg>
